<?xml version="1.0" encoding="UTF-8" standalone="no"?>
<!DOCTYPE svg PUBLIC "-//W3C//DTD SVG 1.1//EN" "http://www.w3.org/Graphics/SVG/1.1/DTD/svg11.dtd">
<svg width="100%" height="100%" viewBox="0 0 1784 2100" version="1.1" xmlns="http://www.w3.org/2000/svg" xmlns:xlink="http://www.w3.org/1999/xlink" xml:space="preserve" xmlns:serif="http://www.serif.com/" style="fill-rule:evenodd;clip-rule:evenodd;stroke-linejoin:round;stroke-miterlimit:2;">
    <g transform="matrix(1,0,0,1,-274.879,-425.407)">
        <g id="Starry-back-silkscreen" serif:id="Starry back silkscreen" transform="matrix(-1.05082,0,0,1.01,1689.97,2560.78)">
            <g id="path25416" transform="matrix(1,0,0,0.998524,-63.2,466.986)">
                <path d="M293.362,-2362.58C288.277,-2361.99 288.985,-2354.66 294.2,-2355.11C299.117,-2355.53 297.99,-2363.11 293.362,-2362.58ZM138.792,-2074.22C131.72,-2064.91 130.481,-2065.37 137.146,-2055.59C138.214,-2054.02 139.604,-2049.05 142.288,-2049.88C144.281,-2050.51 145.378,-2053.61 146.431,-2055.2C151.897,-2063.41 147.804,-2070.49 138.792,-2074.22ZM726.407,-613.271L716.088,-598.426L709.942,-591.613L717.001,-584.014L726.407,-566.707L728.269,-566.707L735.217,-583.17L742.136,-592.59L732.879,-602.116L726.407,-613.271ZM469.532,-2520.69C464.218,-2518.83 466.177,-2509.39 471.984,-2511.17C477.413,-2512.84 474.863,-2522.56 469.532,-2520.69ZM1341.02,-1085.75C1336.96,-1071.68 1337.53,-1051.87 1326.04,-1041.26C1319.88,-1035.56 1310.43,-1033.15 1302.84,-1029.88L1302.84,-1028.94C1312.7,-1025.1 1325.13,-1025.55 1331.63,-1015.87C1337,-1007.87 1334.02,-992.083 1341.95,-987.037C1346.64,-1000.5 1343.81,-1015.55 1357.79,-1024.25C1363.39,-1027.73 1371.09,-1028.75 1377.34,-1030.81L1377.34,-1032.67C1370.56,-1034.45 1362.81,-1034.79 1356.88,-1039C1341.03,-1050.23 1350.83,-1072.69 1341.02,-1085.75ZM962.791,-2389.09L955.871,-2374.34L947.36,-2364.89L955.201,-2355.41L960.928,-2335.08L962.791,-2335.08L968.146,-2353.62L976.862,-2363.1L970.856,-2372.4L964.653,-2389.09L962.791,-2389.09ZM330.218,-2351.98C325.655,-2338.83 320.929,-2333.47 307.868,-2328.7L307.868,-2326.83C314.259,-2323.47 320.942,-2319.48 324.41,-2312.85C326.96,-2307.98 325.651,-2299.21 331.15,-2297.03L339.791,-2316.5L351.638,-2328.7C338.587,-2332.23 335.193,-2339.89 332.081,-2351.98L330.218,-2351.98ZM100.131,-2054.56C95.895,-2051.36 100.756,-2044.51 105.41,-2047.75C109.831,-2050.83 104.102,-2057.57 100.131,-2054.56ZM314.773,-2440.24C310.254,-2431.68 306.458,-2423.2 296.147,-2420.69L307.333,-2411.33L315.704,-2397.41L329.673,-2420.69L314.773,-2440.24ZM1318.37,-2163.72C1314.11,-2161.93 1314.7,-2154.1 1319.97,-2155.78C1324.91,-2157.36 1323.61,-2165.92 1318.37,-2163.72ZM233.78,-2396.48C223.923,-2392.96 231.422,-2379.51 240.133,-2383.27C248.152,-2386.74 241.508,-2399.24 233.78,-2396.48ZM174.815,-2118.78C167.58,-2114.98 174.936,-2101.14 182.65,-2105.14C192.487,-2110.23 183.894,-2123.54 174.815,-2118.78ZM1239.01,-2223.92C1231.47,-2222.31 1232.82,-2210.64 1240.63,-2211.62C1247.95,-2212.53 1246.2,-2225.45 1239.01,-2223.92ZM-163.95,-2172.31C-170.801,-2167.87 -164.213,-2156.97 -157.238,-2161.38C-149.849,-2166.05 -157.28,-2176.64 -163.95,-2172.31ZM1282.98,-1034.12C1272.13,-1031.94 1275,-1015.85 1284.9,-1017.83C1295.42,-1019.92 1292.88,-1036.12 1282.98,-1034.12ZM-137.297,-2120.5C-144.789,-2116.44 -138.479,-2104.82 -131.051,-2108.9C-123.771,-2112.9 -130.161,-2124.36 -137.297,-2120.5ZM1279.29,-2104.02C1272.81,-2101.32 1275.86,-2091.32 1282.7,-2093.65C1289.88,-2096.1 1286.47,-2107.02 1279.29,-2104.02ZM-235.069,-1753.3L-235.069,-1751.44C-223.082,-1748.86 -207.588,-1748.79 -198.163,-1739.77C-188.501,-1730.52 -188.335,-1713.35 -185.711,-1701.15L-183.849,-1701.15C-177.839,-1713.19 -179.889,-1732.37 -168.379,-1741.18C-162.216,-1745.9 -151.3,-1746.97 -143.804,-1748C-141.726,-1748.28 -135.425,-1748.34 -135.425,-1751.52C-135.425,-1754.58 -141.784,-1754.7 -143.804,-1755.24C-152.41,-1757.53 -162.005,-1759.96 -168.369,-1766.59C-181.063,-1779.82 -173.538,-1799.45 -180.123,-1814.77C-184.188,-1811.98 -183.667,-1808.05 -184.757,-1803.59C-187.071,-1794.14 -186.668,-1779.01 -192.142,-1771.04C-202.079,-1756.58 -221.344,-1760.05 -235.069,-1753.3ZM1322.94,-2051.58C1316.51,-2048.1 1320.32,-2038.19 1327.32,-2041.98C1333.68,-2045.42 1329.75,-2055.28 1322.94,-2051.58ZM1029.56,-1792.28L1046.03,-1809.16L1038.83,-1817.07L1032.07,-1825.51L1017.46,-1810.1L1024.51,-1803.11L1029.56,-1792.28ZM-12.897,-1920.24C-19.822,-1915.86 -13.932,-1905.43 -6.339,-1910.64C-0.491,-1914.66 -7.959,-1923.36 -12.897,-1920.24ZM-64.521,-1910.32C-69.601,-1908.02 -64.89,-1901.19 -60.318,-1902.89C-54.387,-1905.1 -59.255,-1912.71 -64.521,-1910.32ZM62.792,-1849.76L72.104,-1865.6C68.41,-1867.25 64.056,-1873.98 60.248,-1873.98C57.958,-1873.98 56.728,-1870.92 55.746,-1869.29C51.169,-1861.71 55.559,-1854.22 62.792,-1849.76ZM1071.36,-1852.56L1082.54,-1835.79L1084.4,-1835.79L1097.44,-1849.76C1096.08,-1853.43 1088.37,-1863.78 1083.77,-1862.71C1079.63,-1861.75 1074.78,-1855.18 1071.36,-1852.56ZM-40.392,-1850.65C-46.735,-1848.34 -42.239,-1838.02 -36.223,-1840.35C-29.941,-1842.79 -34.208,-1852.9 -40.392,-1850.65ZM114.873,-1877.94C101.352,-1876.06 108.292,-1856.13 118.589,-1858.02C130.937,-1860.3 125.736,-1879.45 114.873,-1877.94ZM1287.31,-1814.96L1287.31,-1814.03L1283.58,-1808.44L1288.24,-1808.44C1290.08,-1824.69 1293.41,-1836.67 1308.77,-1845.97C1315.4,-1849.99 1336.34,-1854.58 1337.6,-1862.46C1319.05,-1859.09 1301.51,-1851.31 1288.54,-1837.24C1284.06,-1832.38 1276.85,-1817.64 1287.31,-1814.96ZM105.895,-1818C101.326,-1816.3 105.056,-1810.54 109.098,-1811.89C113.975,-1813.52 110.158,-1819.59 105.895,-1818ZM20.884,-1793.89L13.766,-1777.25L2.259,-1766.89C10.537,-1764.03 16.41,-1759.08 19.953,-1751.06L22.747,-1751.06C26.008,-1760.84 33.556,-1763.74 42.304,-1767.82L27.388,-1777.48L20.884,-1793.89ZM1326.42,-1814.04C1319.1,-1814.93 1312.96,-1809.93 1306.87,-1806.59L1313.38,-1791.69C1302.03,-1792.58 1295.55,-1800.56 1283.6,-1800.82C1270.48,-1801.11 1278.46,-1788.71 1284.52,-1785.17L1285.45,-1786.1L1283.58,-1789.83C1291.76,-1786.88 1299.14,-1784.1 1307.8,-1783.1C1312.57,-1782.55 1318.53,-1783.33 1321.52,-1778.4C1324.09,-1774.16 1322.7,-1766.67 1322.7,-1761.89C1337.46,-1765.73 1323.97,-1786.83 1315.25,-1789.83L1318.04,-1791.69L1312.45,-1802.87C1322.33,-1806.07 1332.53,-1802.47 1339.46,-1813.11L1365.54,-1820.56C1363.61,-1825.42 1357.94,-1824.5 1353.43,-1824.01C1343.73,-1822.92 1332.22,-1823.18 1326.42,-1814.04ZM348.786,-1781.73C340.079,-1778.11 345.759,-1765.75 353.955,-1769.63C361.181,-1773.05 356.907,-1785.1 348.786,-1781.73ZM1264.03,-1810.31L1267.75,-1808.45L1274.27,-1811.25C1271.71,-1828.48 1241.02,-1827.62 1237.42,-1811.25C1233.94,-1795.35 1259.52,-1799.43 1264.03,-1810.31ZM1179.28,-1817.76L1179.28,-1815.9L1214.67,-1817.16L1235.16,-1815.9L1235.16,-1817.76C1216.35,-1822.9 1198.21,-1822.67 1179.28,-1817.76ZM1269.62,-1817.76L1264.03,-1811.25C1263.31,-1815.97 1265.02,-1817.32 1269.62,-1817.76ZM1260.3,-1814.97L1256.58,-1811.25L1260.3,-1814.97ZM-175.93,-1631.18L-175.93,-1628.38C-163.61,-1624.46 -149.902,-1612.88 -142.742,-1602.31C-136.896,-1593.66 -139.128,-1582.82 -126.573,-1582.75C-130.072,-1605.81 -152.01,-1628.79 -175.93,-1631.18ZM1215.6,-1794.48L1217.46,-1790.76L1216.53,-1794.48L1225.85,-1796.34L1225.85,-1797.28L1213.74,-1797.28C1208.69,-1805.91 1187.96,-1810.75 1178.35,-1811.2C1175.27,-1811.35 1166.53,-1812.48 1165.68,-1808.13C1164.87,-1803.9 1172.81,-1799.85 1175.85,-1798.34C1185.27,-1793.68 1206.33,-1789.03 1215.6,-1794.48ZM1246.33,-1809.38L1248.19,-1803.8C1245.14,-1805.03 1244.34,-1806.08 1244.47,-1809.38L1246.33,-1809.38ZM1344.12,-1809.38L1345.05,-1808.45L1344.12,-1809.38ZM1270.55,-1803.8L1275.2,-1808.45L1270.55,-1803.8ZM1251.92,-1807.52L1252.85,-1803.8L1249.13,-1803.8L1251.92,-1807.52ZM1338.53,-1807.52L1338.53,-1805.66L1340.39,-1807.52L1338.53,-1807.52ZM1265.89,-1801L1264.96,-1795.41L1268.68,-1795.41L1267.75,-1801L1265.89,-1801ZM1194.18,-1800.07L1193.25,-1799.14L1194.18,-1800.07ZM1200.7,-1798.21L1197.91,-1800.07L1200.7,-1798.21ZM1208.15,-1799.14L1204.43,-1797.28L1208.15,-1799.14ZM1288.24,-1757.23L1280.79,-1753.51C1278.99,-1768.6 1266.05,-1784.1 1260.3,-1798.21C1254.26,-1795.13 1254.56,-1790.91 1257.2,-1785.17C1262,-1774.79 1268.93,-1758.26 1278.29,-1751.32C1283.58,-1747.41 1287.57,-1752.1 1288.24,-1757.23ZM1233.3,-1797.28L1233.3,-1792.62C1215.63,-1785.22 1206.41,-1759.67 1222.12,-1745.12C1223.78,-1752.75 1220.36,-1761.62 1222.24,-1769.09C1223.88,-1775.58 1232.25,-1769.2 1226.78,-1779.58C1232.68,-1779.64 1251.37,-1778.55 1251.03,-1787.9C1250.8,-1793.73 1237.76,-1796.05 1233.3,-1797.28L1233.3,-1797.28ZM1248.2,-1797.28L1248.2,-1794.48L1250.06,-1794.48L1250.06,-1797.28L1248.2,-1797.28ZM1227.71,-1795.41L1228.64,-1792.62L1231.43,-1794.48L1227.71,-1795.41ZM-213.181,-1609.76C-211.595,-1603.89 -206.612,-1602.15 -202.005,-1598.76C-191.551,-1591.05 -180.7,-1583.55 -169.411,-1577.16L-169.411,-1576.23L-171.273,-1574.37L-161.961,-1571.57L-162.892,-1568.78C-146.666,-1566.73 -158.764,-1575.45 -160.098,-1582.75L-164.754,-1582.75L-163.823,-1587.4L-171.273,-1588.34L-170.342,-1592.99L-188.036,-1597.65L-187.105,-1603.24L-213.181,-1609.76ZM1315.25,-1791.69L1314.32,-1790.76L1315.25,-1791.69ZM287.274,-1741.46C279.925,-1740.03 281.374,-1728.01 289.047,-1729.31C296.595,-1730.59 294.664,-1742.9 287.274,-1741.46ZM1290.1,-1780.51L1290.1,-1777.72L1292.9,-1777.72L1292.9,-1780.51L1290.1,-1780.51ZM1207.22,-1775.86L1207.22,-1772.13L1210.94,-1772.13L1210.94,-1775.86L1207.22,-1775.86ZM-132.16,-1580.88L-126.572,-1567.85L-124.71,-1567.85C-124.148,-1573.57 -126.189,-1579.45 -132.16,-1580.88ZM-107.015,-1557.6C-104.917,-1558.66 -98.214,-1566.61 -97.289,-1566.21C-93.893,-1564.74 -100.199,-1554.4 -93.847,-1555.84C-87.365,-1557.32 -86.239,-1565.97 -89.781,-1570.53C-94.584,-1576.71 -104.036,-1579.86 -111.634,-1578.88C-119.257,-1577.9 -119.749,-1569.84 -115.285,-1564.89C-112.833,-1562.16 -109.537,-1560.33 -107.015,-1557.6ZM-107.947,-1565.99L-109.809,-1565.99L-112.603,-1572.5C-107.702,-1572.53 -106.233,-1570.65 -107.947,-1565.99ZM-85.596,-1567.85C-79.161,-1564.73 -71.25,-1563.95 -64.177,-1565.05C-62.047,-1557.82 -50.847,-1557.17 -43.689,-1555.74C-46.389,-1567.27 -62.9,-1568.41 -72.558,-1570.53C-77.193,-1571.55 -83.486,-1573.17 -85.596,-1567.85ZM-170.342,-1554.81C-180.503,-1556.48 -184.294,-1537.64 -175.93,-1534.32C-174.184,-1539.19 -175.949,-1550.66 -169.385,-1551.96C-165.801,-1552.67 -163.721,-1548.07 -160.919,-1546.69C-157.454,-1544.98 -153.978,-1546.88 -150.785,-1548.29L-151.717,-1552.95L-125.641,-1554.81C-125.974,-1558.16 -126.813,-1564.67 -130.645,-1565.97C-133.704,-1566.99 -137.647,-1563.52 -140.559,-1562.76C-148.902,-1560.58 -164.938,-1562.19 -170.342,-1554.81ZM-121.916,-1562.26C-120.72,-1557.52 -117.123,-1556.46 -112.603,-1555.74C-113.367,-1561.27 -116.801,-1562.05 -121.916,-1562.26ZM-58.589,-1560.4L-61.383,-1562.26L-58.589,-1560.4ZM321.686,-1689.59C323.426,-1683.19 330.189,-1676.43 336.587,-1674.69C338.533,-1679.23 345.508,-1682.08 346.114,-1686.81C346.635,-1690.8 337.844,-1699.99 333.847,-1699.01C329.641,-1697.98 325.4,-1692.02 321.686,-1689.59ZM-55.795,-1557.6L-55.795,-1553.88L-53.002,-1557.6L-55.795,-1557.6ZM-158.235,-1554.81L-161.029,-1552.95L-158.235,-1554.81ZM-122.847,-1554.81L-143.335,-1516.63C-133.725,-1519 -122.332,-1531.52 -119.668,-1540.86C-117.776,-1547.48 -113.159,-1553.55 -122.847,-1554.81ZM-94.909,-1552.02L-93.978,-1547.36C-98.248,-1548.01 -108.58,-1547.13 -108.783,-1540.89C-108.864,-1538.38 -105.191,-1535.76 -104.222,-1533.39C-99.948,-1533.61 -97.267,-1534.34 -94.909,-1538.05L-93.046,-1538.05C-90.658,-1531.87 -88.246,-1526.22 -89.726,-1519.42C-90.807,-1514.46 -93.68,-1510.67 -93.978,-1505.45C-83.34,-1509.31 -79.493,-1525.56 -83.756,-1535.23C-85.7,-1539.65 -90.136,-1542.67 -93.046,-1546.43L-89.321,-1551.08L-72.558,-1538.98C-65.94,-1539.41 -60.568,-1536 -58.589,-1529.66L-55.795,-1529.66C-54.838,-1543.62 -71.46,-1552.3 -83.726,-1553.55C-87.621,-1553.94 -91.018,-1551.84 -94.909,-1552.02ZM-113.534,-1543.63C-109.31,-1544.83 -108.252,-1546.81 -107.947,-1551.08C-112.683,-1550.44 -114.11,-1548.34 -113.534,-1543.63ZM68.516,-1686.45C62.276,-1683.51 66.837,-1674.41 72.802,-1677.75C78.263,-1680.81 74.129,-1689.11 68.516,-1686.45ZM-72.558,-1537.12L-72.558,-1532.46L-71.627,-1532.46L-72.558,-1537.12ZM-119.122,-1528.73L-112.603,-1528.73C-114.866,-1531.67 -116.527,-1531.1 -119.122,-1528.73ZM-105.153,-1530.59L-106.084,-1525.93L-103.29,-1526.86L-105.153,-1530.59ZM-94.909,-1529.66L-94.909,-1526.86L-93.978,-1526.86L-94.909,-1529.66ZM-148.923,-1520.34L-150.785,-1516.62L-145.198,-1516.62L-146.129,-1520.34L-148.923,-1520.34ZM1128.66,-1642.32C1126.22,-1636 1124.79,-1626.46 1120.52,-1621.23C1113.23,-1612.28 1101.49,-1613.04 1092.34,-1607.86L1092.34,-1606C1102.19,-1603.1 1113.73,-1601.75 1121.02,-1593.81C1122.85,-1591.81 1125.78,-1580.66 1128.48,-1581.15C1131.45,-1581.69 1133.36,-1592.17 1135.58,-1594.67C1141.11,-1600.86 1150.85,-1603.35 1158.46,-1606L1158.46,-1607.86C1149.3,-1610.82 1138.75,-1613.36 1134.03,-1622.76C1130.94,-1628.9 1132.18,-1636.69 1128.66,-1642.32ZM359.869,-1628.12L363.594,-1630.91L359.869,-1628.12ZM255.622,-1620.46C249.098,-1619 252.023,-1609.01 258.186,-1610.84C263.889,-1612.55 261.266,-1621.72 255.622,-1620.46ZM158.713,-1620.67C155.684,-1607.81 151.634,-1601.47 139.157,-1596.45L139.157,-1594.59C152.533,-1589.87 155.274,-1583.42 158.713,-1570.38L160.576,-1570.38C164.634,-1583.32 166.324,-1588.37 179.201,-1594.59L179.201,-1596.45C166.571,-1600.72 164.123,-1608.78 160.576,-1620.67L158.713,-1620.67ZM302.265,-1616.6C296.604,-1613.92 299.856,-1605.04 305.72,-1607.94C311.319,-1610.7 308.127,-1619.38 302.265,-1616.6ZM339.632,-1579.38C333.493,-1576.17 337.164,-1564.97 343.86,-1568.26C350.043,-1571.3 345.778,-1582.6 339.632,-1579.38ZM253.704,-1559.2C249.575,-1543.89 243.61,-1539.21 228.559,-1535.92L245.994,-1525.79L254.635,-1510.77L255.566,-1510.77C258.43,-1526.56 268.553,-1530.65 282.573,-1534.06L282.573,-1535.92C269.199,-1541.68 260.613,-1544.11 256.498,-1559.2L253.704,-1559.2ZM286.398,-1455.38C279.451,-1452.65 282.63,-1441.28 289.961,-1443.65C297.409,-1446.05 293.288,-1458.1 286.398,-1455.38Z" style="fill:white;fill-rule:nonzero;"/>
            </g>
            <g id="path254161" serif:id="path25416" transform="matrix(-1,0,0,0.998524,1067.24,137.852)">
                <path d="M338.999,-1862.91C331.928,-1853.6 330.688,-1854.05 337.353,-1844.28C338.421,-1842.71 339.811,-1837.73 342.495,-1838.57C344.488,-1839.19 345.585,-1842.3 346.638,-1843.88C352.105,-1852.1 348.011,-1859.18 338.999,-1862.91ZM618.593,-2161.73L608.274,-2146.88L602.128,-2140.07L609.187,-2132.47L618.593,-2115.16L620.455,-2115.16L627.402,-2131.63L634.322,-2141.05L625.065,-2150.57L618.593,-2161.73ZM784.491,-1924.92C780.701,-1922.55 784.37,-1916.37 788.216,-1918.96C791.942,-1921.48 788.347,-1927.34 784.491,-1924.92ZM825.207,-1925.27C816.928,-1921.67 821.342,-1908.32 830.543,-1912.43C839.66,-1916.5 833.914,-1929.05 825.207,-1925.27ZM738.023,-1565.69C733.962,-1551.61 734.53,-1531.8 723.038,-1521.2C716.873,-1515.5 707.43,-1513.08 699.84,-1509.81L699.84,-1508.88C709.703,-1505.03 722.126,-1505.49 728.626,-1495.8C733.999,-1487.8 731.019,-1472.02 738.954,-1466.97C743.638,-1480.44 740.807,-1495.48 754.786,-1504.18C760.392,-1507.67 768.084,-1508.69 774.342,-1510.74L774.342,-1512.61C767.553,-1514.39 759.805,-1514.73 753.882,-1518.93C738.032,-1530.16 747.829,-1552.63 738.023,-1565.69ZM651.048,-2255.42L644.128,-2240.66L635.617,-2231.22L643.458,-2221.74L649.185,-2201.4L651.048,-2201.4L656.403,-2219.95L665.119,-2229.43L659.113,-2238.73L652.91,-2255.42L651.048,-2255.42ZM515.948,-2172.72C511.385,-2159.57 506.658,-2154.22 493.597,-2149.44L493.597,-2147.57C499.989,-2144.21 506.671,-2140.22 510.14,-2133.6C512.689,-2128.72 511.38,-2119.95 516.879,-2117.77L525.52,-2137.24L537.367,-2149.44C524.316,-2152.97 520.923,-2160.63 517.81,-2172.72L515.948,-2172.72ZM155.972,-1977.02C151.737,-1973.82 156.597,-1966.97 161.251,-1970.21C165.672,-1973.29 159.943,-1980.03 155.972,-1977.02ZM925.887,-1342.99C921.622,-1341.2 922.218,-1333.36 927.489,-1335.05C932.425,-1336.62 931.13,-1345.18 925.887,-1342.99ZM251.838,-1953.96C241.981,-1950.44 249.48,-1936.99 258.191,-1940.75C266.21,-1944.22 259.565,-1956.72 251.838,-1953.96ZM916.377,-1878.81C912.997,-1876.98 904.932,-1868.36 905.314,-1864.36C905.668,-1860.46 914.794,-1849.72 919.106,-1851.74C927.329,-1855.59 929.303,-1865.21 924.461,-1871.73C922.896,-1873.85 919.907,-1880.72 916.377,-1878.81ZM980.049,-1830.24C975.281,-1827.45 978.792,-1818.55 983.932,-1822.1C988.29,-1825.1 985.078,-1833.17 980.049,-1830.24ZM1025.14,-1776.21C1017.6,-1774.61 1018.95,-1762.94 1026.76,-1763.92C1034.08,-1764.83 1032.33,-1777.75 1025.14,-1776.21ZM156.325,-1945.01C149.475,-1940.57 156.063,-1929.67 163.038,-1934.08C170.427,-1938.76 162.996,-1949.34 156.325,-1945.01ZM679.974,-1514.06C669.125,-1511.88 671.993,-1495.79 681.902,-1497.76C692.416,-1499.86 689.883,-1516.06 679.974,-1514.06ZM-237.379,-1727.3C-244.871,-1723.25 -238.561,-1711.63 -231.133,-1715.71C-223.853,-1719.71 -230.243,-1731.16 -237.379,-1727.3ZM892.257,-1353.8C885.776,-1351.09 888.83,-1341.09 895.666,-1343.42C902.846,-1345.87 899.438,-1356.8 892.257,-1353.8ZM-279.422,-1604.64L-279.422,-1602.77C-267.435,-1600.2 -251.941,-1600.12 -242.516,-1591.1C-232.854,-1581.85 -232.687,-1564.68 -230.064,-1552.49L-228.201,-1552.49C-222.192,-1564.52 -224.242,-1583.7 -212.732,-1592.51C-206.569,-1597.23 -195.653,-1598.3 -188.157,-1599.33C-186.079,-1599.61 -179.778,-1599.67 -179.778,-1602.85C-179.778,-1605.91 -186.137,-1606.03 -188.157,-1606.57C-196.763,-1608.86 -206.358,-1611.29 -212.722,-1617.92C-225.416,-1631.15 -217.89,-1650.79 -224.476,-1666.1C-228.541,-1663.32 -228.02,-1659.38 -229.109,-1654.92C-231.424,-1645.47 -231.021,-1630.34 -236.495,-1622.37C-246.432,-1607.91 -265.696,-1611.38 -279.422,-1604.64ZM935.915,-1301.36C929.48,-1297.87 933.289,-1287.96 940.292,-1291.75C946.653,-1295.19 942.723,-1305.05 935.915,-1301.36ZM1032.24,-1861.96L1048.7,-1878.83L1041.5,-1886.75L1034.74,-1895.18L1020.13,-1879.77L1027.18,-1872.79L1032.24,-1861.96ZM-12.897,-1920.24C-19.822,-1915.86 -13.932,-1905.43 -6.339,-1910.64C-0.491,-1914.66 -7.959,-1923.36 -12.897,-1920.24ZM-64.521,-1910.32C-69.601,-1908.02 -64.89,-1901.19 -60.318,-1902.89C-54.387,-1905.1 -59.255,-1912.71 -64.521,-1910.32ZM62.792,-1849.76L72.104,-1865.6C68.41,-1867.25 64.056,-1873.98 60.248,-1873.98C57.958,-1873.98 56.728,-1870.92 55.746,-1869.29C51.169,-1861.71 55.559,-1854.22 62.792,-1849.76ZM691.015,-1622.86L702.191,-1606.1L704.053,-1606.1L717.091,-1620.07C715.731,-1623.74 708.02,-1634.09 703.42,-1633.02C699.285,-1632.06 694.433,-1625.49 691.015,-1622.86ZM-40.392,-1850.65C-46.735,-1848.34 -42.239,-1838.02 -36.223,-1840.35C-29.941,-1842.79 -34.208,-1852.9 -40.392,-1850.65ZM239.812,-1817.14C226.291,-1815.26 233.231,-1795.33 243.527,-1797.22C255.876,-1799.49 250.675,-1818.65 239.812,-1817.14ZM905.216,-1754.87C899.367,-1753.06 898.837,-1741.67 906.007,-1743.76C912.163,-1745.54 912.359,-1757.1 905.216,-1754.87ZM105.895,-1818C101.326,-1816.3 105.056,-1810.54 109.098,-1811.89C113.975,-1813.52 110.158,-1819.59 105.895,-1818ZM20.884,-1793.89L13.766,-1777.25L2.259,-1766.89C10.537,-1764.03 16.41,-1759.08 19.953,-1751.06L22.747,-1751.06C26.008,-1760.84 33.556,-1763.74 42.304,-1767.82L27.388,-1777.48L20.884,-1793.89ZM689.74,-1744.94L691.602,-1744.94C693.903,-1749.29 700.459,-1755.79 700.105,-1760.78C699.09,-1775.32 677.987,-1770.47 679.757,-1758.97C680.474,-1754.29 687.44,-1749.41 689.74,-1744.94ZM321.686,-1689.59C323.426,-1683.19 330.189,-1676.43 336.587,-1674.69C338.533,-1679.23 345.508,-1682.08 346.114,-1686.81C346.635,-1690.8 337.844,-1699.99 333.847,-1699.01C329.641,-1697.98 325.4,-1692.02 321.686,-1689.59ZM68.516,-1686.45C62.276,-1683.51 66.837,-1674.41 72.802,-1677.75C78.263,-1680.81 74.129,-1689.11 68.516,-1686.45ZM1014.17,-1685.46C1007.14,-1681.59 1012.61,-1670.4 1019.82,-1674.87C1026.51,-1679.02 1020.65,-1689.02 1014.17,-1685.46ZM661.965,-1739.02C659.525,-1732.71 658.091,-1723.17 653.826,-1717.94C646.534,-1708.99 634.791,-1709.74 625.645,-1704.57L625.645,-1702.7C635.498,-1699.81 647.037,-1698.46 654.319,-1690.51C656.154,-1688.52 659.087,-1677.37 661.779,-1677.86C664.759,-1678.4 666.659,-1688.88 668.884,-1691.38C674.416,-1697.57 684.148,-1700.06 691.766,-1702.7L691.766,-1704.57C682.602,-1707.53 672.051,-1710.07 667.329,-1719.47C664.247,-1725.61 665.485,-1733.4 661.965,-1739.02ZM770.756,-1634.59C764.554,-1632.37 767.739,-1622.2 774.23,-1624.61C781.196,-1627.21 777.331,-1636.95 770.756,-1634.59ZM359.869,-1628.12L363.594,-1630.91L359.869,-1628.12ZM246.764,-1666.57C240.24,-1665.11 243.166,-1655.12 249.328,-1656.95C255.031,-1658.66 252.408,-1667.83 246.764,-1666.57ZM194.361,-1667.5C191.332,-1654.64 187.282,-1648.31 174.805,-1643.29L174.805,-1641.42C188.182,-1636.7 190.922,-1630.25 194.361,-1617.21L196.224,-1617.21C200.282,-1630.16 201.972,-1635.2 214.849,-1641.42L214.849,-1643.29C202.22,-1647.55 199.771,-1655.61 196.224,-1667.5L194.361,-1667.5ZM293.407,-1662.71C287.746,-1660.03 290.998,-1651.15 296.862,-1654.05C302.462,-1656.81 299.269,-1665.49 293.407,-1662.71ZM586.55,-1658.01C576.465,-1654.45 582.201,-1640.14 591.16,-1643.74C600.119,-1647.35 595.649,-1661.21 586.55,-1658.01ZM-14.842,-1564.9C-18.97,-1549.59 -24.936,-1544.91 -39.986,-1541.62L-22.552,-1531.49L-13.91,-1516.48L-12.979,-1516.48C-10.115,-1532.26 0.008,-1536.35 14.028,-1539.76L14.028,-1541.62C0.654,-1547.38 -7.932,-1549.82 -12.048,-1564.9L-14.842,-1564.9Z" style="fill:white;fill-rule:nonzero;"/>
            </g>
            <g id="path254162" serif:id="path25416" transform="matrix(-1,0,0,0.998524,1067.24,137.852)">
                <path d="M666.454,-1728.04C661.369,-1727.45 662.077,-1720.12 667.292,-1720.56C672.209,-1720.98 671.082,-1728.57 666.454,-1728.04ZM159.735,-737.028C152.664,-727.714 151.425,-728.169 158.09,-718.393C159.158,-716.827 160.548,-711.848 163.231,-712.686C165.224,-713.307 166.321,-716.415 167.375,-717.998C172.841,-726.215 168.747,-733.292 159.735,-737.028ZM262.65,-1077.88L252.332,-1063.03L246.186,-1056.22L253.245,-1048.62L262.65,-1031.31L264.513,-1031.31L271.46,-1047.77L278.38,-1057.19L269.123,-1066.72L262.65,-1077.88ZM784.491,-1924.92C780.701,-1922.55 784.37,-1916.37 788.216,-1918.96C791.942,-1921.48 788.347,-1927.34 784.491,-1924.92ZM825.207,-1925.27C816.928,-1921.67 821.342,-1908.32 830.543,-1912.43C839.66,-1916.5 833.914,-1929.05 825.207,-1925.27ZM585.601,-1700.02C580.287,-1698.16 582.245,-1688.71 588.053,-1690.5C593.482,-1692.16 590.931,-1701.89 585.601,-1700.02ZM93.945,-1720.73C89.885,-1706.66 90.453,-1686.85 78.961,-1676.24C72.796,-1670.54 63.353,-1668.13 55.763,-1664.86L55.763,-1663.92C65.625,-1660.08 78.048,-1660.53 84.548,-1650.85C89.922,-1642.85 86.942,-1627.06 94.876,-1622.02C99.561,-1635.48 96.729,-1650.53 110.708,-1659.23C116.314,-1662.71 124.006,-1663.73 130.265,-1665.79L130.265,-1667.65C123.476,-1669.43 115.727,-1669.77 109.805,-1673.98C93.954,-1685.21 103.751,-1707.67 93.945,-1720.73ZM725.232,-1414.28L718.313,-1399.53L709.801,-1390.09L717.642,-1380.61L723.37,-1360.27L725.232,-1360.27L730.587,-1378.82L739.304,-1388.29L733.297,-1397.6L727.095,-1414.28L725.232,-1414.28ZM387.989,-1917.07C383.426,-1903.92 378.7,-1898.57 365.639,-1893.79L365.639,-1891.92C372.03,-1888.56 378.713,-1884.57 382.181,-1877.95C384.731,-1873.07 383.421,-1864.3 388.921,-1862.12L397.562,-1881.59L409.409,-1893.79C396.358,-1897.33 392.964,-1904.99 389.852,-1917.07L387.989,-1917.07ZM290.707,-993.454C286.472,-990.249 291.332,-983.4 295.986,-986.64C300.407,-989.719 294.678,-996.46 290.707,-993.454ZM418.071,-1700.9C413.552,-1692.33 409.756,-1683.85 399.445,-1681.34L410.631,-1671.98L419.002,-1658.06L432.971,-1681.34L418.071,-1700.9ZM260.428,-989.039C256.163,-987.251 256.759,-979.412 262.03,-981.097C266.965,-982.674 265.671,-991.234 260.428,-989.039ZM228.916,-944.292C219.06,-940.772 226.558,-927.316 235.27,-931.083C243.289,-934.551 236.644,-947.052 228.916,-944.292ZM164.356,-1737.65C160.975,-1735.82 152.911,-1727.2 153.292,-1723.2C153.646,-1719.3 162.773,-1708.56 167.085,-1710.58C175.308,-1714.43 177.282,-1724.05 172.439,-1730.58C170.875,-1732.7 167.885,-1739.56 164.356,-1737.65ZM195.759,-781.582C188.524,-777.783 195.879,-763.943 203.594,-767.939C213.431,-773.034 204.838,-786.347 195.759,-781.582ZM85.437,-1185.64C77.893,-1184.03 79.244,-1172.37 87.057,-1173.34C94.377,-1174.26 92.626,-1187.17 85.437,-1185.64ZM90.729,-792.237C83.878,-787.792 90.466,-776.893 97.441,-781.304C104.83,-785.978 97.399,-796.565 90.729,-792.237ZM35.897,-1669.1C25.047,-1666.92 27.916,-1650.83 37.824,-1652.81C48.338,-1654.9 45.805,-1671.1 35.897,-1669.1ZM911.927,-1250.28C904.435,-1246.23 910.744,-1234.61 918.173,-1238.69C925.453,-1242.69 919.062,-1254.15 911.927,-1250.28ZM226.798,-999.849C220.316,-997.144 223.371,-987.142 230.207,-989.476C237.387,-991.924 233.978,-1002.85 226.798,-999.849ZM853.65,-1032.8L853.65,-1030.94C865.637,-1028.36 881.131,-1028.28 890.556,-1019.26C900.218,-1010.01 900.385,-992.848 903.008,-980.647L904.87,-980.647C910.88,-992.687 908.83,-1011.86 920.34,-1020.67C926.503,-1025.39 937.419,-1026.47 944.915,-1027.49C946.993,-1027.78 953.294,-1027.83 953.294,-1031.01C953.294,-1034.07 946.935,-1034.2 944.915,-1034.73C936.309,-1037.02 926.714,-1039.45 920.35,-1046.08C907.656,-1059.31 915.182,-1078.95 908.596,-1094.26C904.531,-1091.48 905.052,-1087.54 903.962,-1083.09C901.648,-1073.63 902.051,-1058.5 896.577,-1050.53C886.64,-1036.07 867.375,-1039.54 853.65,-1032.8ZM270.456,-947.407C264.021,-943.924 267.83,-934.016 274.833,-937.804C281.193,-941.241 277.263,-951.101 270.456,-947.407ZM-15.803,-954.693L0.662,-971.567L-6.537,-979.481L-13.298,-987.918L-27.91,-972.506L-20.86,-965.519L-15.803,-954.693ZM1020.09,-955.203C1013.17,-950.826 1019.06,-940.396 1026.65,-945.61C1032.5,-949.628 1025.03,-958.323 1020.09,-955.203ZM968.469,-945.292C963.389,-942.986 968.1,-936.154 972.672,-937.857C978.603,-940.066 973.734,-947.683 968.469,-945.292ZM1095.78,-884.732L1105.09,-900.563C1101.4,-902.221 1097.05,-908.945 1093.24,-908.945C1090.95,-908.945 1089.72,-905.89 1088.74,-904.26C1084.16,-896.68 1088.55,-889.183 1095.78,-884.732ZM-245.455,-1419.34L-234.28,-1402.58L-232.417,-1402.58L-219.379,-1416.54C-220.739,-1420.21 -228.45,-1430.56 -233.05,-1429.49C-237.185,-1428.53 -242.037,-1421.96 -245.455,-1419.34ZM992.597,-885.616C986.254,-883.307 990.751,-872.988 996.767,-875.316C1003.05,-877.756 998.782,-887.87 992.597,-885.616ZM708.143,-1680.96C694.622,-1679.08 701.562,-1659.15 711.858,-1661.04C724.207,-1663.31 719.006,-1682.47 708.143,-1680.96ZM894.994,-1800.95C889.145,-1799.13 888.614,-1787.74 895.785,-1789.83C901.941,-1791.61 902.136,-1803.17 894.994,-1800.95ZM1138.88,-852.965C1134.32,-851.27 1138.05,-845.505 1142.09,-846.856C1146.96,-848.485 1143.15,-854.557 1138.88,-852.965ZM1053.87,-828.863L1046.76,-812.221L1035.25,-801.856C1043.53,-798.997 1049.4,-794.043 1052.94,-786.025L1055.74,-786.025C1059,-795.812 1066.55,-798.709 1075.29,-802.788L1060.38,-812.445L1053.87,-828.863ZM278.114,-1821.73C271.683,-1819.8 274.329,-1810.49 280.757,-1812.69C286.911,-1814.81 284.392,-1823.62 278.114,-1821.73ZM392.795,-1728.91C384.087,-1725.29 389.768,-1712.93 397.963,-1716.82C405.19,-1720.23 400.915,-1732.28 392.795,-1728.91ZM821.588,-1625.19L823.45,-1625.19C825.751,-1629.54 832.307,-1636.04 831.953,-1641.02C830.938,-1655.56 809.835,-1650.71 811.605,-1639.21C812.322,-1634.53 819.288,-1629.66 821.588,-1625.19ZM823.369,-1506.29C825.109,-1499.89 831.872,-1493.13 838.27,-1491.39C840.216,-1495.92 847.191,-1498.78 847.797,-1503.51C848.318,-1507.5 839.527,-1516.69 835.53,-1515.71C831.324,-1514.68 827.083,-1508.72 823.369,-1506.29ZM68.516,-1686.45C62.276,-1683.51 66.837,-1674.41 72.802,-1677.75C78.263,-1680.81 74.129,-1689.11 68.516,-1686.45ZM1060.27,-1170.29C1056.88,-1168.22 1059.43,-1162.77 1063.18,-1164.53C1067.43,-1166.53 1064.17,-1172.65 1060.27,-1170.29ZM1124.8,-1216.02C1117.77,-1212.15 1123.24,-1200.96 1130.45,-1205.43C1137.14,-1209.57 1131.28,-1219.58 1124.8,-1216.02ZM1158.34,-1151.97C1155.9,-1145.65 1154.46,-1136.12 1150.2,-1130.88C1142.9,-1121.93 1131.16,-1122.69 1122.02,-1117.51L1122.02,-1115.65C1131.87,-1112.75 1143.41,-1111.4 1150.69,-1103.46C1152.52,-1101.47 1155.46,-1090.32 1158.15,-1090.8C1161.13,-1091.34 1163.03,-1101.83 1165.26,-1104.33C1170.79,-1110.52 1180.52,-1113 1188.14,-1115.65L1188.14,-1117.51C1178.97,-1120.47 1168.42,-1123.02 1163.7,-1132.41C1160.62,-1138.56 1161.86,-1146.34 1158.34,-1151.97ZM770.756,-1634.59C764.554,-1632.37 767.739,-1622.2 774.23,-1624.61C781.196,-1627.21 777.331,-1636.95 770.756,-1634.59ZM370.255,-1658.86L373.98,-1661.66L370.255,-1658.86ZM490.472,-1794.42C483.949,-1792.95 486.874,-1782.96 493.036,-1784.8C498.739,-1786.5 496.117,-1795.67 490.472,-1794.42ZM403.805,-1563.99C400.776,-1551.12 396.726,-1544.79 384.249,-1539.77L384.249,-1537.91C397.625,-1533.19 400.366,-1526.73 403.805,-1513.7L405.668,-1513.7C409.726,-1526.64 414.608,-1535 427.485,-1541.22L427.485,-1543.08C414.855,-1547.35 409.215,-1552.09 405.668,-1563.99L403.805,-1563.99ZM227.066,-1701.41C221.406,-1698.73 224.658,-1689.85 230.521,-1692.75C236.121,-1695.51 232.928,-1704.19 227.066,-1701.41ZM350.018,-1610.13C343.879,-1606.91 347.55,-1595.71 354.246,-1599.01C360.43,-1602.04 356.164,-1613.35 350.018,-1610.13ZM798.517,-1572.25C788.431,-1568.69 794.168,-1554.38 803.127,-1557.98C812.086,-1561.59 807.616,-1575.45 798.517,-1572.25ZM525.25,-1721.44C521.122,-1706.13 515.156,-1701.45 500.106,-1698.16L517.54,-1688.03L526.181,-1673.02L527.112,-1673.02C529.976,-1688.8 540.099,-1692.89 554.119,-1696.3L554.119,-1698.16C540.745,-1703.93 532.159,-1706.36 528.044,-1721.44L525.25,-1721.44Z" style="fill:white;fill-rule:nonzero;"/>
            </g>
            <g id="path254163" serif:id="path25416" transform="matrix(-1,0,0,0.998524,1067.24,137.852)">
                <path d="M143.825,-609.52C138.741,-608.935 139.448,-601.603 144.664,-602.048C149.581,-602.467 148.454,-610.051 143.825,-609.52ZM-48.298,-572.361C-55.369,-563.048 -56.608,-563.503 -49.943,-553.727C-48.875,-552.16 -47.486,-547.182 -44.802,-548.02C-42.809,-548.641 -41.712,-551.749 -40.659,-553.332C-35.192,-561.548 -39.286,-568.626 -48.298,-572.361ZM594.204,-272.452L583.886,-257.606L577.739,-250.794L584.798,-243.194L594.204,-225.888L596.067,-225.888L603.014,-242.35L609.933,-251.771L600.676,-261.297L594.204,-272.452ZM253.164,-549.811C249.374,-547.437 253.043,-541.256 256.889,-543.849C260.614,-546.362 257.02,-552.223 253.164,-549.811ZM293.879,-550.156C285.6,-546.561 290.015,-533.21 299.216,-537.314C308.333,-541.384 302.587,-553.935 293.879,-550.156ZM46.966,-529.27C41.652,-527.409 43.61,-517.961 49.418,-519.744C54.847,-521.411 52.296,-531.136 46.966,-529.27ZM515,-386.451C510.939,-372.377 511.508,-352.566 500.016,-341.959C493.851,-336.263 484.408,-333.846 476.818,-330.574L476.818,-329.643C486.68,-325.797 499.103,-326.252 505.603,-316.565C510.977,-308.568 507.997,-292.782 515.931,-287.736C520.615,-301.199 517.784,-316.246 531.763,-324.945C537.369,-328.433 545.061,-329.45 551.32,-331.506L551.32,-333.368C544.531,-335.153 536.782,-335.493 530.859,-339.697C515.009,-350.928 524.806,-373.389 515,-386.451ZM725.232,-1414.28L718.313,-1399.53L709.801,-1390.09L717.642,-1380.61L723.37,-1360.27L725.232,-1360.27L730.587,-1378.82L739.304,-1388.29L733.297,-1397.6L727.095,-1414.28L725.232,-1414.28ZM894.442,-550.059C889.879,-536.914 885.153,-531.556 872.092,-526.777L872.092,-524.915C878.483,-521.547 885.166,-517.562 888.634,-510.936C891.184,-506.063 889.875,-497.292 895.374,-495.114L904.015,-514.58L915.862,-526.777C902.811,-530.316 899.417,-537.975 896.305,-550.059L894.442,-550.059ZM85.258,-497.393C81.023,-494.188 85.883,-487.339 90.538,-490.579C94.958,-493.658 89.229,-500.399 85.258,-497.393ZM39.285,-1208.82C34.766,-1200.25 30.969,-1191.77 20.659,-1189.26L31.845,-1179.9L40.216,-1165.98L54.185,-1189.26L39.285,-1208.82ZM490.898,-249.513C486.633,-247.725 487.229,-239.886 492.5,-241.572C497.435,-243.148 496.141,-251.709 490.898,-249.513ZM558.808,-187.797C548.951,-184.277 556.45,-170.821 565.161,-174.588C573.18,-178.056 566.535,-190.557 558.808,-187.797ZM585.411,-403.368C582.03,-401.536 573.965,-392.923 574.347,-388.916C574.701,-385.022 583.828,-374.284 588.139,-376.303C596.363,-380.147 598.337,-389.767 593.494,-396.296C591.93,-398.415 588.94,-405.28 585.411,-403.368ZM-12.274,-616.915C-19.509,-613.117 -12.154,-599.276 -4.439,-603.273C5.398,-608.368 -3.195,-621.681 -12.274,-616.915ZM644.298,-367.728C639.53,-364.943 643.041,-356.043 648.181,-359.588C652.54,-362.587 649.327,-370.666 644.298,-367.728ZM416.99,-380.216C409.447,-378.611 410.797,-366.943 418.611,-367.919C425.931,-368.833 424.18,-381.747 416.99,-380.216ZM85.611,-465.383C78.761,-460.938 85.349,-450.039 92.324,-454.45C99.713,-459.124 92.282,-469.711 85.611,-465.383ZM456.952,-334.823C446.102,-332.639 448.97,-316.552 458.879,-318.525C469.393,-320.62 466.86,-336.819 456.952,-334.823ZM1120.89,-707.463C1113.4,-703.407 1119.71,-691.791 1127.14,-695.871C1134.42,-699.869 1128.03,-711.325 1120.89,-707.463ZM457.268,-260.324C450.786,-257.619 453.841,-247.617 460.677,-249.951C467.857,-252.399 464.448,-263.323 457.268,-260.324ZM985.244,-503.065L985.244,-501.203C997.231,-498.625 1012.73,-498.547 1022.15,-489.526C1031.81,-480.279 1031.98,-463.114 1034.6,-450.914L1036.46,-450.914C1042.47,-462.953 1040.42,-482.128 1051.93,-490.939C1058.1,-495.659 1069.01,-496.733 1076.51,-497.759C1078.59,-498.043 1084.89,-498.1 1084.89,-501.278C1084.89,-504.34 1078.53,-504.463 1076.51,-505C1067.9,-507.288 1058.31,-509.717 1051.94,-516.35C1039.25,-529.579 1046.78,-549.215 1040.19,-564.529C1036.12,-561.745 1036.65,-557.806 1035.56,-553.354C1033.24,-543.901 1033.64,-528.765 1028.17,-520.8C1018.23,-506.34 998.969,-509.81 985.244,-503.065ZM376.614,-333.743C370.179,-330.26 373.988,-320.352 380.991,-324.139C387.352,-327.577 383.422,-337.437 376.614,-333.743ZM419.3,-478.892L435.765,-495.766L428.566,-503.68L421.805,-512.117L407.194,-496.705L414.243,-489.718L419.3,-478.892ZM1040.97,-694.64C1034.05,-690.263 1039.94,-679.833 1047.53,-685.048C1053.38,-689.066 1045.91,-697.761 1040.97,-694.64ZM989.348,-684.73C984.268,-682.424 988.979,-675.592 993.551,-677.294C999.482,-679.504 994.613,-687.12 989.348,-684.73ZM1357.21,-1223.1L1366.53,-1238.93C1362.83,-1240.59 1358.48,-1247.32 1354.67,-1247.32C1352.38,-1247.32 1351.15,-1244.26 1350.17,-1242.63C1345.59,-1235.05 1349.98,-1227.55 1357.21,-1223.1ZM463.208,-456.559L474.384,-439.796L476.246,-439.796L489.284,-453.765C487.924,-457.434 480.213,-467.78 475.613,-466.71C471.478,-465.75 466.626,-459.185 463.208,-456.559ZM986.712,-567.913C980.369,-565.603 984.865,-555.285 990.881,-557.613C997.163,-560.053 992.896,-570.167 986.712,-567.913ZM185.514,-562.442C171.994,-560.561 178.934,-540.632 189.23,-542.523C201.579,-544.795 196.377,-563.951 185.514,-562.442ZM289.652,-448.488C283.803,-446.672 283.273,-435.283 290.443,-437.369C296.599,-439.157 296.795,-450.714 289.652,-448.488ZM1301.71,-995.17C1297.14,-993.475 1300.87,-987.711 1304.91,-989.061C1309.79,-990.691 1305.97,-996.763 1301.71,-995.17ZM1315.31,-1167.23L1308.19,-1150.59L1296.68,-1140.23C1304.96,-1137.37 1310.83,-1132.41 1314.37,-1124.4L1317.17,-1124.4C1320.43,-1134.18 1327.98,-1137.08 1336.72,-1141.16L1321.81,-1150.82L1315.31,-1167.23ZM784.567,-454.717C778.136,-452.789 780.782,-443.476 787.21,-445.683C793.364,-447.798 790.845,-456.607 784.567,-454.717ZM742.304,-400.246C733.596,-396.624 739.277,-384.265 747.472,-388.149C754.699,-391.567 750.424,-403.618 742.304,-400.246ZM804.113,-405.199C796.765,-403.764 798.214,-391.742 805.887,-393.045C813.434,-394.321 811.503,-406.633 804.113,-405.199ZM284.865,-301.439L286.728,-301.439C289.028,-305.788 295.584,-312.288 295.231,-317.27C294.215,-331.817 273.113,-326.965 274.882,-315.464C275.599,-310.779 282.565,-305.909 284.865,-301.439ZM90.505,-628.724C92.245,-622.326 99.008,-615.565 105.405,-613.824C107.352,-618.359 114.327,-621.218 114.932,-625.939C115.454,-629.935 106.663,-639.127 102.666,-638.149C98.46,-637.115 94.219,-631.155 90.505,-628.724ZM68.516,-1686.45C62.276,-1683.51 66.837,-1674.41 72.802,-1677.75C78.263,-1680.81 74.129,-1689.11 68.516,-1686.45ZM1218.63,-697.695C1215.24,-695.628 1217.79,-690.18 1221.54,-691.94C1225.79,-693.933 1222.53,-700.061 1218.63,-697.695ZM1283.16,-743.425C1276.13,-739.56 1281.6,-728.366 1288.81,-732.837C1295.5,-736.981 1289.64,-746.983 1283.16,-743.425ZM1316.69,-679.376C1314.25,-673.062 1312.82,-663.526 1308.56,-658.292C1301.26,-649.343 1289.52,-650.097 1280.37,-644.919L1280.37,-643.057C1290.23,-640.16 1301.77,-638.81 1309.05,-630.866C1310.88,-628.873 1313.82,-617.726 1316.51,-618.21C1319.49,-618.75 1321.39,-629.237 1323.61,-631.732C1329.14,-637.925 1338.88,-640.412 1346.5,-643.057L1346.5,-644.919C1337.33,-647.881 1326.78,-650.423 1322.06,-659.82C1318.98,-665.966 1320.21,-673.752 1316.69,-679.376ZM248.127,-516.074C241.925,-513.858 245.11,-503.679 251.601,-506.091C258.567,-508.689 254.702,-518.43 248.127,-516.074ZM748.741,-521.716L752.466,-524.51L748.741,-521.716ZM996.926,-427.406C990.402,-425.944 993.327,-415.952 999.489,-417.786C1005.19,-419.49 1002.57,-428.663 996.926,-427.406ZM-38.938,-1110.88C-41.967,-1098.02 -46.018,-1091.69 -58.495,-1086.67L-58.495,-1084.81C-45.118,-1080.08 -42.377,-1073.63 -38.938,-1060.59L-37.076,-1060.59C-33.018,-1073.54 -28.136,-1081.89 -15.258,-1088.11L-15.258,-1089.98C-27.888,-1094.24 -33.528,-1098.99 -37.076,-1110.88L-38.938,-1110.88ZM733.519,-334.398C727.859,-331.717 731.111,-322.841 736.974,-325.738C742.574,-328.503 739.382,-337.183 733.519,-334.398ZM728.504,-472.981C722.365,-469.767 726.036,-458.564 732.732,-461.861C738.916,-464.897 734.651,-476.203 728.504,-472.981ZM43.82,-734.396C33.734,-730.839 39.471,-716.525 48.43,-720.129C57.389,-723.733 52.918,-737.6 43.82,-734.396ZM154.259,-510.428C150.131,-495.118 144.165,-490.434 129.115,-487.147L146.549,-477.015L155.191,-462.002L156.122,-462.002C158.986,-477.787 169.109,-481.876 183.129,-485.284L183.129,-487.147C169.755,-492.911 161.168,-495.342 157.053,-510.428L154.259,-510.428Z" style="fill:white;fill-rule:nonzero;"/>
            </g>
            <g id="path254164" serif:id="path25416" transform="matrix(-1,0,0,0.998524,1067.24,137.852)">
                <path d="M1284.88,-676.391C1289.97,-675.806 1289.26,-668.473 1284.05,-668.918C1279.13,-669.337 1280.25,-676.921 1284.88,-676.391ZM-2.452,-1614.21C4.619,-1604.89 5.859,-1605.35 -0.806,-1595.57C-1.875,-1594.01 -3.264,-1589.03 -5.948,-1589.87C-7.941,-1590.49 -9.038,-1593.6 -10.091,-1595.18C-15.558,-1603.4 -11.464,-1610.47 -2.452,-1614.21ZM-206.251,-1368.15L-195.932,-1353.31L-189.786,-1346.5L-196.845,-1338.9L-206.251,-1321.59L-208.113,-1321.59L-215.061,-1338.05L-221.98,-1347.47L-212.723,-1357L-206.251,-1368.15ZM1166.85,-873.279C1170.64,-870.904 1166.97,-864.723 1163.12,-867.316C1159.39,-869.829 1162.99,-875.69 1166.85,-873.279ZM1126.13,-873.623C1134.41,-870.028 1130,-856.677 1120.79,-860.781C1111.68,-864.851 1117.42,-877.402 1126.13,-873.623ZM-97.715,-1571.12C-92.402,-1569.26 -94.36,-1559.81 -100.168,-1561.59C-105.597,-1563.26 -103.046,-1572.98 -97.715,-1571.12ZM782.052,-417.795C786.112,-403.721 785.544,-383.911 797.036,-373.304C803.201,-367.607 812.644,-365.19 820.234,-361.919L820.234,-360.988C810.372,-357.141 797.948,-357.597 791.448,-347.91C786.075,-339.912 789.055,-324.127 781.12,-319.08C776.436,-332.544 779.267,-347.59 765.289,-356.289C759.682,-359.777 751.99,-360.795 745.732,-362.85L745.732,-364.713C752.521,-366.497 760.269,-366.838 766.192,-371.041C782.042,-382.273 772.245,-404.733 782.052,-417.795ZM902.831,-1978.04C907.394,-1964.9 912.121,-1959.54 925.182,-1954.76L925.182,-1952.9C918.79,-1949.53 912.108,-1945.55 908.64,-1938.92C906.09,-1934.05 907.399,-1925.28 901.9,-1923.1L893.259,-1942.56L881.412,-1954.76C894.463,-1958.3 897.856,-1965.96 900.969,-1978.04L902.831,-1978.04ZM36.209,-1594.55C40.444,-1591.34 35.584,-1584.49 30.929,-1587.73C26.509,-1590.81 32.238,-1597.55 36.209,-1594.55ZM32.246,-1394.86C36.511,-1393.07 35.915,-1385.23 30.644,-1386.92C25.709,-1388.5 27.003,-1397.06 32.246,-1394.86ZM-172.517,-1234.57C-162.66,-1231.05 -170.159,-1217.6 -178.87,-1221.36C-186.889,-1224.83 -180.244,-1237.33 -172.517,-1234.57ZM-12.48,-1451.26C-9.1,-1449.43 -1.035,-1440.81 -1.417,-1436.81C-1.771,-1432.91 -10.897,-1422.17 -15.209,-1424.19C-23.432,-1428.04 -25.406,-1437.66 -20.564,-1444.19C-18.999,-1446.31 -16.01,-1453.17 -12.48,-1451.26ZM-38.476,-1658.76C-31.241,-1654.96 -38.596,-1641.12 -46.311,-1645.12C-56.148,-1650.22 -47.555,-1663.53 -38.476,-1658.76ZM328.278,-367.022C333.046,-364.238 329.535,-355.338 324.395,-358.882C320.036,-361.882 323.249,-369.96 328.278,-367.022ZM119.735,-1526C126.586,-1521.56 119.998,-1510.66 113.023,-1515.07C105.634,-1519.74 113.064,-1530.33 119.735,-1526ZM1014.3,-1405.52C1021.79,-1401.46 1015.48,-1389.85 1008.06,-1393.93C1000.77,-1397.92 1007.17,-1409.38 1014.3,-1405.52ZM-55.556,-1349.31C-49.074,-1346.6 -52.129,-1336.6 -58.965,-1338.93C-66.145,-1341.38 -62.736,-1352.31 -55.556,-1349.31ZM731.655,-287.342L731.655,-285.479C719.669,-282.902 704.174,-282.823 694.75,-273.803C685.088,-264.556 684.921,-247.391 682.298,-235.191L680.435,-235.191C674.426,-247.23 676.475,-266.405 664.966,-275.216C658.803,-279.935 647.886,-281.01 640.39,-282.036C638.313,-282.32 632.012,-282.377 632.012,-285.555C632.012,-288.617 638.37,-288.74 640.39,-289.277C648.996,-291.565 658.591,-293.994 664.956,-300.626C677.65,-313.856 670.124,-333.492 676.71,-348.806C680.775,-346.022 680.254,-342.083 681.343,-337.631C683.657,-328.177 683.255,-313.042 688.729,-305.077C698.666,-290.616 717.93,-294.087 731.655,-287.342ZM22.218,-1353.23C28.653,-1349.75 24.844,-1339.84 17.841,-1343.63C11.48,-1347.06 15.41,-1356.92 22.218,-1353.23ZM1072.15,-1050.47L1055.68,-1067.34L1062.88,-1075.26L1069.64,-1083.69L1084.25,-1068.28L1077.2,-1061.3L1072.15,-1050.47ZM218.857,-1911.6C225.782,-1907.22 219.892,-1896.79 212.299,-1902.01C206.451,-1906.03 213.919,-1914.72 218.857,-1911.6ZM1362.16,-874.599C1367.25,-872.293 1356.9,-876.989 1362.16,-874.599L1362.16,-874.599ZM287.762,-482.712L278.449,-498.544C282.144,-500.201 286.497,-506.925 290.305,-506.925C292.596,-506.925 293.825,-503.87 294.808,-502.241C299.384,-494.66 294.995,-487.163 287.762,-482.712ZM1041.32,-1313.94L1030.14,-1297.18L1028.28,-1297.18L1015.24,-1311.14C1016.6,-1314.81 1024.31,-1325.16 1028.91,-1324.09C1033.05,-1323.13 1037.9,-1316.57 1041.32,-1313.94ZM1130.36,-771.955C1136.21,-770.139 1136.74,-758.75 1129.57,-760.836C1123.41,-762.624 1123.21,-774.181 1130.36,-771.955ZM369.298,-433.649L376.417,-417.007L387.924,-406.642C379.646,-403.783 373.773,-398.829 370.23,-390.81L367.436,-390.81C364.174,-400.598 356.626,-403.494 347.879,-407.573L362.795,-417.23L369.298,-433.649ZM555.534,-2165.13C561.965,-2163.2 559.319,-2153.89 552.891,-2156.1C546.737,-2158.21 549.256,-2167.02 555.534,-2165.13ZM1195.66,-729.871C1206.54,-724.647 1200.04,-707.567 1189.26,-712.95C1180.4,-717.374 1186.09,-734.472 1195.66,-729.871ZM535.988,-2115.61C543.337,-2114.18 528.598,-2117.05 535.988,-2115.61L535.988,-2115.61ZM1135.14,-624.906L1133.28,-624.906C1130.98,-629.255 1124.42,-635.755 1124.78,-640.737C1125.79,-655.284 1146.9,-650.432 1145.13,-638.931C1144.41,-634.246 1137.44,-629.376 1135.14,-624.906ZM-141.255,-1670.57C-142.995,-1664.17 -149.757,-1657.41 -156.155,-1655.67C-158.102,-1660.21 -157.412,-1680.97 -153.415,-1680C-149.21,-1678.96 -144.969,-1673 -141.255,-1670.57ZM68.516,-1686.45C62.276,-1683.51 66.837,-1674.41 72.802,-1677.75C78.263,-1680.81 74.129,-1689.11 68.516,-1686.45ZM916.008,-1362.29C919.398,-1360.23 916.847,-1354.78 913.094,-1356.54C908.847,-1358.53 912.106,-1364.66 916.008,-1362.29ZM133.735,-1829.24C136.175,-1822.92 137.609,-1813.39 141.875,-1808.15C149.167,-1799.2 160.91,-1799.96 170.055,-1794.78L170.055,-1792.92C160.202,-1790.02 148.664,-1788.67 141.381,-1780.73C139.546,-1778.74 136.613,-1767.59 133.922,-1768.07C130.942,-1768.61 129.042,-1779.1 126.816,-1781.6C121.284,-1787.79 111.552,-1790.27 103.935,-1792.92L103.935,-1794.78C113.098,-1797.74 123.65,-1800.29 128.371,-1809.68C131.454,-1815.83 130.215,-1823.61 133.735,-1829.24ZM1180.58,-582.945C1186.78,-580.728 1183.6,-570.549 1177.11,-572.961C1170.14,-575.56 1174.01,-585.301 1180.58,-582.945ZM889.401,-1778.04L885.676,-1780.83L889.401,-1778.04ZM1363.92,-1611.33C1370.44,-1609.87 1367.51,-1599.88 1361.35,-1601.71C1355.65,-1603.41 1358.27,-1612.59 1363.92,-1611.33ZM9.39,-1883.39C12.419,-1870.53 16.47,-1864.2 28.947,-1859.18L28.947,-1857.32C15.57,-1852.59 12.829,-1846.14 9.39,-1833.1L7.528,-1833.1C3.47,-1846.05 -1.412,-1854.4 -14.29,-1860.62L-14.29,-1862.49C-1.66,-1866.75 3.98,-1871.5 7.528,-1883.39L9.39,-1883.39ZM584.352,-2083.5C590.013,-2080.82 586.761,-2071.95 580.897,-2074.84C575.298,-2077.61 578.49,-2086.29 584.352,-2083.5ZM958.905,-1747.06C965.044,-1743.84 961.373,-1732.64 954.677,-1735.93C948.494,-1738.97 952.759,-1750.28 958.905,-1747.06ZM1304.37,-865.635C1308.5,-850.325 1314.46,-845.641 1329.52,-842.354L1312.08,-832.222L1303.44,-817.209L1302.51,-817.209C1299.64,-832.994 1289.52,-837.083 1275.5,-840.491L1275.5,-842.354C1288.88,-848.118 1297.46,-850.549 1301.58,-865.635L1304.37,-865.635ZM646.656,-1791.08C653.602,-1788.35 650.424,-1776.98 643.093,-1779.34C635.644,-1781.75 639.765,-1793.8 646.656,-1791.08Z" style="fill:white;fill-rule:nonzero;"/>
            </g>
            <g id="path254165" serif:id="path25416" transform="matrix(-1,0,0,0.998524,1067.24,137.852)">
                <path d="M1112.71,-834.118C1107.62,-833.533 1108.33,-826.2 1113.55,-826.645C1118.46,-827.064 1117.34,-834.649 1112.71,-834.118ZM1200.31,-1405.17C1193.24,-1395.86 1192,-1396.31 1198.67,-1386.54C1199.74,-1384.97 1201.12,-1379.99 1203.81,-1380.83C1205.8,-1381.45 1206.9,-1384.56 1207.95,-1386.14C1213.42,-1394.36 1209.33,-1401.44 1200.31,-1405.17ZM1412.1,-1670.14C1408.31,-1667.77 1411.98,-1661.59 1415.82,-1664.18C1419.55,-1666.69 1415.95,-1672.55 1412.1,-1670.14ZM1295.58,-1362.08C1290.26,-1360.22 1292.22,-1350.77 1298.03,-1352.56C1303.46,-1354.22 1300.91,-1363.95 1295.58,-1362.08ZM-191.001,-1055.22C-195.062,-1041.14 -194.494,-1021.33 -205.986,-1010.73C-212.151,-1005.03 -221.594,-1002.61 -229.184,-999.341L-229.184,-998.41C-219.321,-994.564 -206.898,-995.019 -200.398,-985.332C-195.025,-977.334 -198.005,-961.549 -190.07,-956.503C-185.386,-969.966 -188.217,-985.013 -174.238,-993.712C-168.632,-997.199 -160.94,-998.217 -154.682,-1000.27L-154.682,-1002.13C-161.471,-1003.92 -169.219,-1004.26 -175.142,-1008.46C-190.992,-1019.7 -181.195,-1042.16 -191.001,-1055.22ZM725.232,-1414.28L718.313,-1399.53L709.801,-1390.09L717.642,-1380.61L723.37,-1360.27L725.232,-1360.27L730.587,-1378.82L739.304,-1388.29L733.297,-1397.6L727.095,-1414.28L725.232,-1414.28ZM1360.96,-1101.31C1356.39,-1088.16 1351.67,-1082.81 1338.61,-1078.03L1338.61,-1076.16C1345,-1072.8 1351.68,-1068.81 1355.15,-1062.19C1357.7,-1057.31 1356.39,-1048.54 1361.89,-1046.36L1370.53,-1065.83L1382.38,-1078.03C1369.33,-1081.57 1365.93,-1089.22 1362.82,-1101.31L1360.96,-1101.31ZM1161.65,-1385.51C1157.42,-1382.31 1162.28,-1375.46 1166.93,-1378.7C1171.35,-1381.78 1165.62,-1388.52 1161.65,-1385.51ZM75.72,-1084.64C71.201,-1076.08 67.405,-1067.59 57.095,-1065.09L68.28,-1055.72L76.651,-1041.8L90.62,-1065.09L75.72,-1084.64ZM-145.531,-807.635C-155.388,-804.115 -147.889,-790.659 -139.178,-794.426C-131.159,-797.894 -137.803,-810.395 -145.531,-807.635ZM-175.736,-1145.7C-179.117,-1143.87 -187.182,-1135.25 -186.8,-1131.25C-186.446,-1127.35 -177.32,-1116.62 -173.008,-1118.63C-164.785,-1122.48 -162.81,-1132.1 -167.653,-1138.63C-169.218,-1140.75 -172.207,-1147.61 -175.736,-1145.7ZM1236.34,-1449.73C1229.1,-1445.93 1236.46,-1432.09 1244.17,-1436.08C1254.01,-1441.18 1245.42,-1454.49 1236.34,-1449.73ZM-61.703,-1036.5C-66.471,-1033.71 -62.96,-1024.81 -57.82,-1028.35C-53.461,-1031.35 -56.674,-1039.43 -61.703,-1036.5ZM1162.01,-1353.5C1155.15,-1349.06 1161.74,-1338.16 1168.72,-1342.57C1176.11,-1347.24 1168.68,-1357.83 1162.01,-1353.5ZM-248.733,-929.091C-255.215,-926.385 -252.16,-916.383 -245.325,-918.717C-238.145,-921.166 -241.553,-932.089 -248.733,-929.091ZM405.012,-1746.28L405.012,-1744.42C416.999,-1741.84 432.493,-1741.76 441.918,-1732.74C451.58,-1723.49 451.746,-1706.33 454.37,-1694.13L456.232,-1694.13C462.242,-1706.17 460.192,-1725.34 471.702,-1734.15C477.865,-1738.87 488.781,-1739.95 496.277,-1740.97C498.355,-1741.26 504.656,-1741.31 504.656,-1744.49C504.656,-1747.55 498.297,-1747.68 496.277,-1748.21C487.671,-1750.5 478.076,-1752.93 471.712,-1759.56C459.018,-1772.79 466.543,-1792.43 459.957,-1807.74C455.892,-1804.96 456.414,-1801.02 455.324,-1796.57C453.01,-1787.11 453.412,-1771.98 447.938,-1764.01C438.002,-1749.55 418.737,-1753.02 405.012,-1746.28ZM-228.77,-786.455C-235.205,-782.972 -231.396,-773.064 -224.393,-776.851C-218.033,-780.289 -221.963,-790.149 -228.77,-786.455ZM-183.283,-629.642C-190.208,-625.265 -184.317,-614.835 -176.725,-620.05C-170.876,-624.068 -178.344,-632.763 -183.283,-629.642ZM-234.906,-619.732C-239.986,-617.426 -235.275,-610.594 -230.703,-612.297C-224.772,-614.506 -229.641,-622.122 -234.906,-619.732ZM-157.887,-1281.59L-148.574,-1297.42C-152.269,-1299.08 -156.622,-1305.81 -160.43,-1305.81C-162.721,-1305.81 -163.951,-1302.75 -164.933,-1301.12C-169.509,-1293.54 -165.12,-1286.04 -157.887,-1281.59ZM1154.4,-787.04C1140.88,-785.159 1147.82,-765.23 1158.11,-767.12C1170.46,-769.392 1165.26,-788.549 1154.4,-787.04ZM-60.025,-1142.2C-64.594,-1140.51 -60.864,-1134.74 -56.822,-1136.09C-51.945,-1137.72 -55.762,-1143.8 -60.025,-1142.2ZM26.916,-1157.07C20.484,-1155.14 23.13,-1145.83 29.559,-1148.03C35.712,-1150.15 33.193,-1158.96 26.916,-1157.07ZM1365.76,-913.153C1357.06,-909.531 1362.74,-897.172 1370.93,-901.056C1378.16,-904.474 1373.88,-916.524 1365.76,-913.153ZM46.462,-1107.55C39.113,-1106.12 40.562,-1094.09 48.235,-1095.4C55.783,-1096.67 53.851,-1108.98 46.462,-1107.55ZM1339.12,-1461.54C1340.86,-1455.14 1347.62,-1448.38 1354.02,-1446.63C1355.96,-1451.17 1362.94,-1454.03 1363.54,-1458.75C1364.07,-1462.75 1355.27,-1471.94 1351.28,-1470.96C1347.07,-1469.93 1342.83,-1463.97 1339.12,-1461.54ZM68.516,-1686.45C62.276,-1683.51 66.837,-1674.41 72.802,-1677.75C78.263,-1680.81 74.129,-1689.11 68.516,-1686.45ZM-163.08,-878.964C-166.469,-876.897 -163.918,-871.449 -160.165,-873.209C-155.918,-875.202 -159.178,-881.33 -163.08,-878.964ZM-22.639,-891.839C-29.67,-887.975 -24.195,-876.781 -16.986,-881.251C-10.3,-885.395 -16.158,-895.397 -22.639,-891.839ZM10.897,-827.791C8.457,-821.476 7.023,-811.94 2.758,-806.707C-4.534,-797.757 -16.277,-798.511 -25.422,-793.334L-25.422,-791.471C-15.569,-788.575 -4.031,-787.224 3.252,-779.28C5.086,-777.288 8.02,-766.14 10.711,-766.625C13.691,-767.165 15.591,-777.651 17.817,-780.147C23.348,-786.34 33.08,-788.826 40.698,-791.471L40.698,-793.334C31.534,-796.295 20.983,-798.837 16.261,-808.234C13.179,-814.38 14.418,-822.166 10.897,-827.791ZM1343.22,-843.104L1346.95,-845.898L1343.22,-843.104ZM-93.362,-696.268C-99.886,-694.806 -96.961,-684.813 -90.798,-686.648C-85.095,-688.352 -87.718,-697.525 -93.362,-696.268ZM46.297,-934.996C43.267,-922.135 39.217,-915.802 26.74,-910.783L26.74,-908.92C40.117,-904.198 42.858,-897.745 46.297,-884.707L48.159,-884.707C52.217,-897.652 57.099,-906.007 69.977,-912.228L69.977,-914.091C57.347,-918.356 51.707,-923.103 48.159,-934.996L46.297,-934.996ZM27.518,-1003.17C21.858,-1000.48 25.11,-991.608 30.973,-994.504C36.573,-997.27 33.38,-1005.95 27.518,-1003.17ZM1322.99,-794.368C1316.85,-791.155 1320.52,-779.952 1327.21,-783.249C1333.4,-786.285 1329.13,-797.591 1322.99,-794.368ZM1292.43,-1567.21C1282.35,-1563.65 1288.08,-1549.34 1297.04,-1552.94C1306,-1556.55 1301.53,-1570.41 1292.43,-1567.21ZM1131.84,-991.623C1127.71,-976.313 1121.75,-971.628 1106.7,-968.341L1124.13,-958.209L1132.77,-943.197L1133.7,-943.197C1136.57,-958.982 1146.69,-963.07 1160.71,-966.478L1160.71,-968.341C1147.34,-974.106 1138.75,-976.536 1134.63,-991.623L1131.84,-991.623ZM86.85,-757.14C79.903,-754.412 83.082,-743.041 90.413,-745.406C97.861,-747.809 93.74,-759.86 86.85,-757.14Z" style="fill:white;fill-rule:nonzero;"/>
            </g>
            <g id="path254166" serif:id="path25416" transform="matrix(1,0,0,1,-547.36,441.429)">
                <path d="M644.228,-1120.65C640.168,-1106.58 640.736,-1086.77 629.244,-1076.16C623.079,-1070.46 613.636,-1068.05 606.046,-1064.77L606.046,-1063.84C615.908,-1060 628.331,-1060.45 634.831,-1050.76C640.205,-1042.77 637.225,-1026.98 645.159,-1021.93C649.843,-1035.4 647.012,-1050.44 660.991,-1059.14C666.597,-1062.63 674.289,-1063.65 680.548,-1065.7L680.548,-1067.57C673.759,-1069.35 666.01,-1069.69 660.088,-1073.9C644.237,-1085.13 654.034,-1107.59 644.228,-1120.65ZM1037.07,-2057.51C1030.58,-2054.8 1033.64,-2044.8 1040.47,-2047.13C1047.65,-2049.58 1044.25,-2060.51 1037.07,-2057.51ZM1104.72,-2178.72C1098.29,-2175.24 1102.1,-2165.33 1109.1,-2169.12C1115.46,-2172.56 1111.53,-2182.42 1104.72,-2178.72Z" style="fill:white;fill-rule:nonzero;"/>
            </g>
        </g>
    </g>
</svg>
